<svg xmlns="http://www.w3.org/2000/svg" version="1.1" xmlns:xlink="http://www.w3.org/1999/xlink" xmlns:svgjs="http://svgjs.com/svgjs" width="1000" height="1000"><style>
    #light-icon {
      display: inline;
    }
    #dark-icon {
      display: none;
    }

    @media (prefers-color-scheme: dark) {
      #light-icon {
        display: none;
      }
      #dark-icon {
        display: inline;
      }
    }
  </style><g id="light-icon"><svg xmlns="http://www.w3.org/2000/svg" version="1.1" xmlns:xlink="http://www.w3.org/1999/xlink" xmlns:svgjs="http://svgjs.com/svgjs" width="1000" height="1000"><rect width="1000" height="1000" rx="200" ry="200" fill="#60a5fa"></rect><g transform="matrix(1.3722126929674099,0,0,1.3722126929674099,100,187.82161234991423)"><svg xmlns="http://www.w3.org/2000/svg" version="1.1" xmlns:xlink="http://www.w3.org/1999/xlink" xmlns:svgjs="http://svgjs.com/svgjs" width="583" height="455"><svg xmlns="http://www.w3.org/2000/svg" width="583" height="455" viewBox="0 0 583 455">
  <defs>
    <style>
      .cls-1 {
        fill-rule: evenodd;
      }
    </style>
  </defs>
  <path id="Relleno_de_color_1" data-name="Relleno de color 1" class="cls-1" d="M22,0L51,20c16.037,10.028,34.478,15.328,57,19,30.786,5.019,63.929-6.2,90-11,40.24-7.41,92.6-2.093,126,7,43.977,11.971,79.554,30.724,112,54l28,25c33.811-13.326,62.026,5.69,88,12l26-1c-1.895,6.1-7.275,8.887-12,12q0.5,1,1,2c6.008,0.663,13.667,2.277,16,7-34.449,6.657-53.759,30.2-59,65,28.269,23.17-17.934,75.784-30,85-61.444,46.932-213.964,61.268-218,158l-7,1c-11.587-62.861,30.739-103.938,71-125-2.43-4.507-6.594-10.693-4-17,6.623-13.047,25.989-15.176,36-25l-4-17c-88.988-3.976-162.694,9.507-218,42-35.4,20.8-96.715,67.668-140,74l-1-1c2.053-9.814,41.241-27.934,51-34l99-64c17.744-10.874,37.216-17.544,52-31l-5-6c-58.553-15.791-139.287-6.077-206-6v-6l87-14,100-11c57.494-9.042,115.169-3.727,145-39v-1l-25-5c-11.362,3.45-26.315,10-44,7-9.647-1.635-19.339-6.547-27-8-13.846-2.627-31.5,5.955-48,2l-23-10-33-1c-18.139-4.775-21.906-18.43-33-24l-20-3c-22.1-7.988-35.049-27.52-44-49C27.086,64.008,12.685,27.5,22,0ZM479,148l-54,10c-37.3,11.737-64.1,33.478-93,53l-34,22c33.463,0.493,66.248,11.693,102,6,43.739-6.965,75.9-18.353,112-31C523.925,171.539,536.542,146.453,479,148Zm28-26-3,4q0.5,3,1,6l4,2,5-1c1.3-2.981,2.3-4.629,1-8l-2-3h-6Z"></path>
</svg></svg></g></svg></g><g id="dark-icon"><svg xmlns="http://www.w3.org/2000/svg" version="1.1" xmlns:xlink="http://www.w3.org/1999/xlink" xmlns:svgjs="http://svgjs.com/svgjs" width="1000" height="1000"><rect width="1000" height="1000" rx="200" ry="200" fill="#1d4ed8"></rect><g transform="matrix(1.3722126929674099,0,0,1.3722126929674099,100,187.82161234991423)"><svg xmlns="http://www.w3.org/2000/svg" version="1.1" xmlns:xlink="http://www.w3.org/1999/xlink" xmlns:svgjs="http://svgjs.com/svgjs" width="583" height="455"><svg xmlns="http://www.w3.org/2000/svg" width="583" height="455" viewBox="0 0 583 455">
  <defs>
    <style>
      .cls-1 {
        fill: #fff;
        fill-rule: evenodd;
      }
    </style>
  </defs>
  <path id="Relleno_de_color_1" data-name="Relleno de color 1" class="cls-1" d="M22,0L51,20c16.037,10.028,34.478,15.328,57,19,30.786,5.019,63.929-6.2,90-11,40.24-7.41,92.6-2.093,126,7,43.977,11.971,79.554,30.724,112,54l28,25c33.811-13.326,62.026,5.69,88,12l26-1c-1.895,6.1-7.275,8.887-12,12q0.5,1,1,2c6.008,0.663,13.667,2.277,16,7-34.449,6.657-53.759,30.2-59,65,28.269,23.17-17.934,75.784-30,85-61.444,46.932-213.964,61.268-218,158l-7,1c-11.587-62.861,30.739-103.938,71-125-2.43-4.507-6.594-10.693-4-17,6.623-13.047,25.989-15.176,36-25l-4-17c-88.988-3.976-162.694,9.507-218,42-35.4,20.8-96.715,67.668-140,74l-1-1c2.053-9.814,41.241-27.934,51-34l99-64c17.744-10.874,37.216-17.544,52-31l-5-6c-58.553-15.791-139.287-6.077-206-6v-6l87-14,100-11c57.494-9.042,115.169-3.727,145-39v-1l-25-5c-11.362,3.45-26.315,10-44,7-9.647-1.635-19.339-6.547-27-8-13.846-2.627-31.5,5.955-48,2l-23-10-33-1c-18.139-4.775-21.906-18.43-33-24l-20-3c-22.1-7.988-35.049-27.52-44-49C27.086,64.008,12.685,27.5,22,0ZM479,148l-54,10c-37.3,11.737-64.1,33.478-93,53l-34,22c33.463,0.493,66.248,11.693,102,6,43.739-6.965,75.9-18.353,112-31C523.925,171.539,536.542,146.453,479,148Zm28-26-3,4q0.5,3,1,6l4,2,5-1c1.3-2.981,2.3-4.629,1-8l-2-3h-6Z"></path>
</svg></svg></g></svg></g></svg>