<?xml version="1.0" encoding="utf-8"?>
<!-- Generator: Adobe Illustrator 24.2.1, SVG Export Plug-In . SVG Version: 6.00 Build 0)  -->
<svg version="1.1" id="artwork-1000x1000_xA0_Imagen_1_"
	 xmlns="http://www.w3.org/2000/svg" xmlns:xlink="http://www.w3.org/1999/xlink" x="0px" y="0px" viewBox="0 0 1000 1000"
	 style="enable-background:new 0 0 1000 1000;" xml:space="preserve">
<path d="M238.49,661.85c3.44-12.09,6.75-23.75,10.06-35.4c37.78-133.05,75.57-266.1,113.27-399.17c1.1-3.87,2.46-5.56,6.95-5.55
	c59.82,0.19,119.65,0.12,179.47,0.12c1.64,0,3.28,0,5.68,0C520.84,338.32,487.94,454.14,455,570.14c-8.08,0-15.73,0-23.38,0
	c-27.99,0-55.99,0.09-83.98-0.11c-3.96-0.03-5.39,1.34-6.41,4.93c-7.85,27.53-15.96,54.99-23.78,82.52
	c-0.98,3.45-2.25,4.76-6.01,4.72c-22.66-0.19-45.33-0.09-67.99-0.11C241.98,662.1,240.53,661.96,238.49,661.85z M459.68,282.79
	c-10.66,0-20.47,0.2-30.26-0.1c-3.94-0.12-5.34,1.31-6.38,4.98c-20.47,72.2-41.09,144.36-61.66,216.53
	c-0.49,1.7-0.85,3.44-1.38,5.58c10.06,0,19.56-0.3,29.02,0.13c4.73,0.22,6.5-1.34,7.77-5.83c16.44-58.3,33.09-116.53,49.69-174.78
	C450.81,314.12,455.1,298.92,459.68,282.79z"/>
<path d="M689.68,282.8c-11.69,0-22.33-0.14-32.97,0.18c-1.33,0.04-3.3,2.36-3.78,3.98c-6.19,21.08-12.17,42.22-18.19,63.34
	c-14.64,51.37-29.28,102.75-43.91,154.13c-0.45,1.57-0.78,3.16-1.32,5.35c11.44,0,22.39,0.12,33.33-0.18
	c1.14-0.03,2.77-2.41,3.23-3.97c7.34-25.25,14.53-50.54,21.74-75.83c3.11-10.91,3.08-10.91,14.21-10.91c21.64,0,43.29,0,65.92,0
	c-14.39,50.68-28.62,100.82-42.88,151.06c-63.4,0-126.51,0-190.26,0c0.46-1.96,0.79-3.67,1.26-5.33
	c31.96-112.54,63.93-225.08,95.88-337.63c0.84-2.95,1.34-5.26,5.64-5.25c60.82,0.18,121.63,0.12,182.45,0.12c0.98,0,1.95,0,3.87,0
	c-14.4,50.72-28.64,100.87-42.89,151.07c-25.64,0-50.93,0-76.95,0C672.6,342.89,681.03,313.22,689.68,282.8z"/>
<path d="M773.56,696.29c-11.9,48.02-23.73,95.78-35.58,143.62c-9.48,0-18.6,0-28.44,0c9.83-39.69,19.57-79.02,29.38-118.61
	c-4.37,0-8.33,0-12.69,0c-3.38,13.59-6.75,27.12-10.1,40.65c-6.09,24.56-12.21,49.11-18.18,73.69c-0.78,3.2-1.84,4.75-5.55,4.58
	c-7.63-0.35-15.29-0.1-23.9-0.1c9.86-39.81,19.59-79.09,29.4-118.72c-4.24,0-8.15,0-12.69,0c-9.77,39.31-19.58,78.81-29.43,118.47
	c-9.53,0-18.8,0-28.61,0c2.94-11.95,5.79-23.56,8.66-35.17c8.65-34.9,17.33-69.79,25.91-104.71c0.68-2.79,1.49-4.21,4.83-4.19
	c34.5,0.14,68.99,0.08,103.49,0.1C771.03,695.9,771.99,696.11,773.56,696.29z"/>
<path d="M295.97,839.95c-23.39,0-46.17,0-69.8,0c1.97-7.97,3.75-15.65,5.91-23.22c0.25-0.87,2.66-1.57,4.07-1.59
	c10.49-0.13,20.98-0.07,31.47-0.07c1.82,0,3.64,0,6.01,0c2.82-11.2,5.6-22.25,8.55-34c-13.85,0-27.22,0-41.35,0
	c2.46-10.06,4.72-19.37,7.02-28.67c4.3-17.44,8.65-34.88,12.91-52.33c0.58-2.37,0.92-4.28,4.24-4.25
	c21.48,0.15,42.96,0.1,64.45,0.13c0.48,0,0.95,0.22,2.07,0.5C319.68,744.22,307.86,791.95,295.97,839.95z M288.43,755.88
	c2.86-11.76,5.62-23.1,8.45-34.71c-4.51,0-8.44,0-12.69,0c-2.8,11.5-5.56,22.85-8.38,34.44c1.43,0.13,2.24,0.26,3.05,0.27
	C281.85,755.9,284.83,755.88,288.43,755.88z"/>
<path d="M331.03,755.87c13.04,0,25.51,0,38.5,0c2.83-11.52,5.62-22.92,8.57-34.92c-12.91,0-25.34,0-38.49,0
	c2.03-8.2,3.84-15.75,5.86-23.25c0.21-0.77,1.64-1.72,2.51-1.73c21.3-0.1,42.59-0.08,64.58-0.08c-2.53,10.23-4.92,19.88-7.29,29.53
	c-4.09,16.64-8.33,33.26-12.15,49.96c-1.02,4.46-2.92,5.76-7.4,5.59c-9.48-0.38-18.99-0.22-28.48,0c-1.54,0.04-4.07,1.27-4.4,2.43
	c-2.85,10.23-5.31,20.58-8.06,31.61c12.9,0,25.27,0,38.26,0c-2.17,8.76-4.15,16.77-6.15,24.86c-22.3,0-44.24,0-66.76,0
	C317.12,811.78,324.02,784.04,331.03,755.87z"/>
<path d="M536.8,695.89c-12.03,48.54-23.87,96.29-35.7,144c-22.44,0-44.39,0-66.93,0c2.06-8.36,4.04-16.37,6.12-24.82
	c11.36,0,22.49-0.18,33.62,0.1c3.95,0.1,5.4-1.18,6.22-5c2.05-9.57,4.64-19.03,7.18-29.19c-8.31,0-16.07,0-24.52,0
	c2.15-8.71,4.14-16.72,6.19-25.03c8.18,0,16.13,0,24.54,0c2.85-11.63,5.64-23.03,8.59-35.03c-12.93,0-25.36,0-38.48,0
	c2.03-8.19,3.83-15.75,5.88-23.24c0.22-0.81,1.97-1.7,3.01-1.71C493.64,695.87,514.77,695.89,536.8,695.89z"/>
<path d="M653.38,695.88c-1.95,7.94-3.6,15.38-5.76,22.67c-0.34,1.14-2.99,2.23-4.6,2.27c-9.13,0.22-18.28,0.1-27.74,0.1
	c-2.51,10.28-4.93,20.24-7.52,30.86c7.72,0,14.95,0,22.87,0c-1.98,8.08-3.67,15.51-5.75,22.82c-0.29,1.02-2.41,2.08-3.74,2.15
	c-4.98,0.25-10.01,0.38-14.98,0.02c-3.84-0.28-5.1,1.37-5.93,4.79c-4.5,18.59-9.21,37.14-13.85,55.69c-0.2,0.79-0.45,1.57-0.74,2.59
	c-9.33,0-18.59,0-28.19,0c0.28-1.65,0.43-3.11,0.78-4.52c11.13-44.89,22.34-89.76,33.31-134.69c0.96-3.94,2.55-4.89,6.35-4.84
	c16.65,0.2,33.31,0.09,49.97,0.09C649.5,695.88,651.14,695.88,653.38,695.88z"/>
<path d="M384.97,575.85c-1.99,5.71-3.82,10.98-5.84,16.79c10.34,0,20.24,0,31.01,0c-1.43,3.99-2.6,7.33-3.81,10.65
	c-6.04,16.69-12.01,33.4-18.23,50.02c-0.58,1.56-2.67,3.62-4.09,3.64c-15.66,0.25-31.32,0.15-46.98,0.12
	c-0.61,0-1.22-0.22-2.33-0.44c3.76-10.33,7.43-20.4,11.09-30.47c5.66-15.58,11.38-31.13,16.89-46.76c0.93-2.63,2.08-3.72,4.92-3.62
	C373.23,576,378.88,575.85,384.97,575.85z M385.13,604.43c-9.34-2.03-9.68-1.86-12.54,5.97c-3.75,10.26-7.51,20.51-11.22,30.78
	c-0.52,1.45-0.81,2.98-1.22,4.53c8.35,1.11,9.53,0.9,10.81-2.54C375.7,630.4,380.32,617.6,385.13,604.43z"/>
<path d="M639.67,575.85c-2.08,5.91-3.87,11.02-5.93,16.88c10.5,0,20.49,0,31.18,0c-7.95,21.9-15.6,42.99-23.3,64.21
	c-6.81,0-13.44,0-20.9,0c6.37-17.66,12.62-34.98,18.87-52.3c-8.27-2.61-9.57-2.03-12.28,5.42c-5.24,14.37-10.54,28.72-15.63,43.15
	c-1.06,3-2.52,4.16-5.73,3.99c-5.27-0.27-10.57-0.07-16.59-0.07c1.25-3.6,2.24-6.54,3.29-9.45c8.11-22.48,16.31-44.93,24.28-67.46
	c1.21-3.42,2.88-4.64,6.45-4.43C628.53,576.08,633.69,575.85,639.67,575.85z"/>
<path d="M473.65,592.88c-5.22,14.29-10.02,27.72-15.13,41.03c-0.5,1.3-2.93,2.55-4.52,2.62c-6.65,0.31-13.31,0.17-19.97,0.18
	c-8.63,0.01-8.63,0-10.53,9.46c9.99,0,19.88,0,30.7,0c-1.3,3.6-2.11,6.42-3.36,9.03c-0.44,0.91-1.95,1.83-2.98,1.84
	c-16.3,0.11-32.6,0.08-49.4,0.08c0.42-1.64,0.64-2.89,1.06-4.05c6.79-18.78,13.56-37.56,20.49-56.28c0.57-1.53,2.3-3.72,3.53-3.74
	C439.98,592.8,456.44,592.88,473.65,592.88z M430.26,625.86c2.85,0,4.85,0.2,6.79-0.07c1.44-0.2,3.67-0.64,4.06-1.59
	c2.7-6.49,5-13.14,7.71-20.49c-4.4,0.83-8.96-2.88-11.26,2.38C434.86,612.28,432.85,618.76,430.26,625.86z"/>
<path d="M511.61,603.57c-10.19,0-20.24,0-30.09,0c-0.22-0.87-0.34-1.06-0.29-1.19c3.09-9.53,3.09-9.52,13.13-9.52
	c13.97,0,27.95,0,42.59,0c-4.06,11.32-7.94,22.16-11.85,33c-3.36,9.33-6.64,18.7-10.23,27.95c-0.54,1.4-2.57,3.15-3.93,3.17
	c-15.65,0.22-31.3,0.13-46.95,0.1c-0.62,0-1.23-0.23-2.38-0.45c3.9-10.97,7.7-21.7,11.53-32.42c4-11.19,4.02-11.19,15.98-11.19
	c4,0,7.99,0,11.99,0C509.46,613.03,509.46,613.03,511.61,603.57z M504.56,624.11c-2.87,0-4.88-0.17-6.83,0.06
	c-1.28,0.15-3.28,0.58-3.62,1.42c-2.63,6.53-4.93,13.19-7.34,19.82c0.32,0.53,0.64,1.06,0.96,1.59c3.27-1.05,8.25-1.15,9.47-3.34
	C500.44,637.85,502.06,631.13,504.56,624.11z"/>
<path d="M550.93,645.62c9.9,1.51,9.81,1.47,12.97-6.86c3.59-9.48,1.19-7.58,10.99-7.78c3.94-0.08,7.88-0.01,12.61-0.01
	c-3.16,8.67-5.99,16.61-9,24.48c-0.3,0.78-1.73,1.6-2.63,1.6c-16.48,0.1-32.96,0.07-50.14,0.07c7.89-21.71,15.59-42.88,23.28-64.05
	c17.44,0,34.56,0,52.26,0c-2.84,7.85-5.45,15.36-8.36,22.76c-0.39,1-2.23,1.98-3.43,2.02c-5.64,0.21-11.3,0.09-17.86,0.09
	c1.64-4.76,3.11-9.05,4.58-13.33c-8.46-2.49-9.63-1.93-12.37,5.62C559.58,621.89,555.32,633.55,550.93,645.62z"/>
<path d="M426.72,810.88c-2.36,9.58-4.44,18.3-6.75,26.96c-0.24,0.91-1.78,2.07-2.74,2.09c-8.46,0.16-16.93,0.1-26.11,0.1
	c2.35-9.55,4.52-18.54,6.87-27.49c0.19-0.73,1.68-1.58,2.57-1.59C409.02,810.83,417.48,810.88,426.72,810.88z"/>
</svg>
