<?xml version="1.0" encoding="UTF-8"?>
<svg id="Layer_1" data-name="Layer 1" xmlns="http://www.w3.org/2000/svg" viewBox="0 0 1000 1000">
  <defs>
    <style>
      .cls-1 {
        fill: #fff;
        fill-rule: evenodd;
      }

      .cls-2 {
        fill: #1aa6fd;
      }
    </style>
  </defs>
  <g id="light-icon">
    <g>
      <rect class="cls-2" width="1000" height="1000"/>
      <path id="Relleno_de_color_1" data-name="Relleno de color 1" class="cls-1" d="m204.15,250.26l31.84,21.96c17.6,11.01,37.85,16.83,62.57,20.86,33.8,5.51,70.18-6.81,98.8-12.08,44.17-8.13,101.65-2.3,138.32,7.68,48.28,13.14,87.33,33.73,122.95,59.28l30.74,27.44c37.12-14.63,68.09,6.25,96.6,13.17l28.54-1.1c-2.08,6.7-7.99,9.76-13.17,13.17.37.73.73,1.46,1.1,2.2,6.6.73,15,2.5,17.56,7.68-37.82,7.31-59.01,33.15-64.77,71.36,31.03,25.44-19.69,83.19-32.93,93.31-67.45,51.52-234.88,67.26-239.31,173.45l-7.68,1.1c-12.72-69.01,33.74-114.1,77.94-137.22-2.67-4.95-7.24-11.74-4.39-18.66,7.27-14.32,28.53-16.66,39.52-27.44l-4.39-18.66c-97.69-4.36-178.6,10.44-239.31,46.11-38.86,22.83-106.17,74.28-153.69,81.23l-1.1-1.1c2.25-10.77,45.27-30.67,55.99-37.32l108.68-70.26c19.48-11.94,40.85-19.26,57.08-34.03l-5.49-6.59c-64.28-17.33-152.91-6.67-226.14-6.59v-6.59l95.51-15.37,109.78-12.08c63.12-9.93,126.43-4.09,159.18-42.81v-1.1l-27.44-5.49c-12.47,3.79-28.89,10.98-48.3,7.68-10.59-1.79-21.23-7.19-29.64-8.78-15.2-2.88-34.58,6.54-52.69,2.2l-25.25-10.98-36.23-1.1c-19.91-5.24-24.05-20.23-36.23-26.35l-21.96-3.29c-24.26-8.77-38.48-30.21-48.3-53.79-8.69-20.85-24.5-60.93-14.27-91.11Zm501.68,162.47l-59.28,10.98c-40.95,12.88-70.37,36.75-102.09,58.18l-37.32,24.15c36.73.54,72.73,12.84,111.97,6.59,48.02-7.65,83.32-20.15,122.95-34.03,13.09-40.03,26.94-67.56-36.23-65.87Zm30.74-28.54l-3.29,4.39c.37,2.2.73,4.39,1.1,6.59l4.39,2.2,5.49-1.1c1.43-3.27,2.52-5.08,1.1-8.78l-2.2-3.29h-6.59Z"/>
    </g>
  </g>
</svg>