<?xml version="1.0" standalone="no"?>
<!DOCTYPE svg PUBLIC "-//W3C//DTD SVG 20010904//EN"
 "http://www.w3.org/TR/2001/REC-SVG-20010904/DTD/svg10.dtd">
<svg version="1.0" xmlns="http://www.w3.org/2000/svg"
 width="700.000000pt" height="700.000000pt" viewBox="0 0 700.000000 700.000000"
 preserveAspectRatio="xMidYMid meet">
<metadata>
Created by potrace 1.14, written by Peter Selinger 2001-2017
</metadata>
<g transform="translate(0.000000,700.000000) scale(0.100000,-0.100000)"
fill="#000000" stroke="none">
<path d="M2553 5442 c-10 -7 -45 -112 -77 -232 -8 -30 -55 -197 -104 -370 -99
-344 -175 -613 -367 -1290 -69 -245 -132 -465 -139 -490 -31 -100 -189 -666
-190 -679 -1 -12 42 -14 258 -15 161 -1 264 3 272 9 7 5 52 145 99 310 47 164
91 305 97 312 8 10 93 13 397 13 l387 0 73 258 c123 435 340 1201 372 1312 24
81 149 521 174 610 2 8 11 42 20 75 9 33 23 79 31 103 8 23 14 51 14 61 0 18
-25 19 -653 19 -360 0 -658 -3 -664 -6z m658 -449 c-26 -86 -113 -390 -115
-398 -4 -16 -21 -77 -142 -505 -175 -619 -182 -642 -198 -652 -6 -4 -62 -7
-124 -6 -99 1 -112 3 -108 17 19 64 259 909 261 921 19 81 180 628 188 638 7
8 45 12 128 12 l118 0 -8 -27z"/>
<path d="M4162 5441 c-12 -7 -78 -234 -527 -1821 -80 -283 -151 -534 -159
-557 -7 -24 -11 -45 -8 -48 3 -3 303 -5 666 -5 l661 0 142 503 c79 276 146
514 149 530 l6 27 -256 0 c-290 0 -279 3 -303 -83 -6 -23 -41 -145 -78 -272
-36 -126 -67 -235 -69 -241 -7 -38 -27 -44 -142 -44 -127 0 -123 -3 -98 75 8
28 17 57 19 65 16 60 209 737 295 1035 33 116 62 217 64 225 15 62 51 167 60
178 9 9 44 12 128 10 l115 -3 -83 -290 c-46 -159 -86 -300 -89 -312 l-5 -23
269 0 270 0 11 43 c6 23 18 67 27 97 9 30 17 60 19 65 1 8 97 346 228 806 l13
47 -657 0 c-361 0 -661 -3 -668 -7z"/>
<path d="M2539 2943 c-6 -16 -48 -131 -94 -258 -46 -126 -88 -242 -94 -258
l-11 -27 182 2 183 3 32 80 c17 44 52 136 77 205 24 69 47 133 51 143 7 16 -2
17 -99 17 -58 0 -106 4 -106 9 0 5 7 28 15 51 8 23 15 46 15 51 0 5 -32 9 -70
9 -68 0 -71 -1 -81 -27z m149 -177 c5 -5 -71 -221 -94 -268 -11 -22 -19 -26
-41 -22 -15 3 -29 6 -30 8 -6 6 100 281 110 288 11 6 46 3 55 -6z"/>
<path d="M4331 2956 c-11 -13 -201 -532 -201 -548 0 -10 121 -10 136 0 6 4 39
83 73 177 34 93 67 176 75 183 10 10 21 12 38 6 l25 -9 -63 -170 c-35 -93 -63
-176 -63 -183 -1 -10 16 -13 70 -10 l72 3 78 215 c43 118 78 218 79 223 0 4
-47 7 -105 7 l-105 0 6 28 c4 15 13 42 21 60 l13 32 -69 0 c-46 0 -72 -5 -80
-14z"/>
<path d="M2951 2837 c-9 -12 -131 -337 -155 -414 l-7 -23 173 0 c95 0 178 4
184 8 6 4 16 21 21 38 l11 32 -104 -2 c-98 -1 -104 0 -104 19 0 41 13 47 118
49 58 1 106 6 112 12 11 11 110 268 110 285 0 5 -78 9 -174 9 -133 0 -176 -3
-185 -13z m166 -63 l21 -6 -18 -53 c-30 -86 -37 -95 -75 -95 l-34 0 25 68 c35
92 40 97 81 86z"/>
<path d="M3397 2838 c-9 -7 -19 -24 -22 -38 l-6 -26 105 1 105 1 -6 -26 c-3
-14 -8 -28 -10 -32 -2 -5 -48 -8 -102 -8 -62 0 -103 -4 -114 -12 -9 -7 -39
-77 -66 -155 l-50 -143 179 0 c171 0 180 1 190 21 10 17 85 220 140 377 l19
52 -173 0 c-122 0 -177 -4 -189 -12z m129 -220 c-2 -7 -10 -31 -16 -53 -15
-54 -39 -83 -73 -89 -27 -5 -28 -3 -23 20 4 14 16 49 27 79 19 52 22 55 56 55
24 0 33 -4 29 -12z"/>
<path d="M3822 2793 c-11 -32 -37 -103 -57 -158 -20 -55 -47 -130 -60 -167
l-24 -68 179 0 c167 0 180 1 190 19 9 19 60 154 60 162 0 2 -30 4 -67 4 l-68
-1 -22 -44 c-12 -25 -24 -49 -25 -54 -4 -9 -55 -12 -64 -4 -2 3 13 54 35 114
68 190 64 184 107 176 28 -5 29 -11 10 -57 -8 -19 -12 -36 -8 -39 10 -5 131
-1 137 6 3 3 19 42 35 86 l30 82 -184 0 -184 0 -20 -57z"/>
<path d="M1835 2120 c-6 -9 -51 -177 -60 -225 -3 -11 -23 -93 -45 -183 -22
-90 -40 -167 -40 -172 0 -5 42 -9 93 -9 50 1 115 0 143 0 l51 -1 -32 -117 -31
-118 -135 0 c-74 -1 -139 -4 -146 -8 -9 -6 -32 -79 -35 -112 0 -5 -4 -20 -9
-32 l-9 -23 245 0 244 0 11 38 c37 130 238 957 234 964 -8 12 -472 10 -479 -2z
m241 -182 c-2 -7 -11 -42 -20 -78 -40 -166 -31 -150 -82 -150 -39 0 -45 3 -40
18 3 9 15 58 26 107 12 50 24 96 26 103 2 7 21 12 48 12 32 0 44 -4 42 -12z"/>
<path d="M2424 2119 c-11 -18 -43 -152 -39 -160 3 -3 58 -7 122 -7 65 0 123 0
129 -1 7 -1 4 -26 -8 -73 -18 -72 -22 -86 -34 -140 l-5 -27 -137 -3 -136 -3
-73 -290 c-40 -159 -72 -291 -73 -292 0 -2 105 -3 234 -3 l234 0 21 85 c11 46
21 86 21 87 0 2 -60 3 -133 3 l-134 -1 10 41 c24 102 48 180 57 189 5 5 63 10
129 10 66 1 125 6 130 11 5 6 23 69 40 140 17 72 40 166 51 210 12 44 23 91
26 105 3 14 9 39 13 55 5 17 11 40 14 53 l5 22 -228 0 c-157 0 -231 -3 -236
-11z"/>
<path d="M3293 2118 c-9 -12 -43 -135 -43 -156 0 -5 56 -9 125 -9 69 0 128 -3
131 -6 4 -3 0 -30 -7 -59 -7 -29 -14 -55 -14 -58 -1 -3 -7 -31 -15 -62 l-13
-58 -88 0 -87 0 -17 -72 c-9 -40 -18 -80 -21 -89 -4 -13 8 -16 76 -16 44 0 82
-2 85 -4 6 -6 -46 -212 -57 -224 -4 -5 -65 -10 -134 -10 -143 -1 -135 4 -154
-90 -7 -33 -15 -65 -17 -72 -4 -10 43 -13 230 -13 l235 0 102 413 c56 226 112
454 125 505 l22 92 -227 0 c-170 0 -230 -3 -237 -12z"/>
<path d="M4153 2118 c-9 -11 -16 -34 -28 -88 -2 -8 -51 -208 -110 -445 -58
-236 -107 -438 -109 -447 -4 -16 6 -18 95 -18 l98 0 10 38 c24 90 53 209 57
227 2 11 13 55 25 98 24 85 14 78 119 79 55 0 66 8 76 56 4 20 8 42 10 47 1 6
6 24 9 42 l7 32 -76 -2 c-46 -2 -76 2 -76 8 0 5 10 54 22 108 19 82 26 97 43
98 11 0 58 2 105 4 47 1 88 3 92 4 6 1 25 50 33 87 2 10 7 34 11 52 l7 32
-206 0 c-152 0 -207 -3 -214 -12z"/>
<path d="M4643 2118 c-6 -7 -63 -227 -127 -488 -64 -261 -119 -483 -122 -492
-5 -16 4 -18 95 -18 l101 0 7 28 c4 15 50 200 102 412 l96 385 43 3 c26 2 42
-1 42 -8 0 -6 -12 -57 -26 -113 -14 -56 -27 -109 -29 -117 -2 -8 -8 -35 -15
-60 -7 -25 -14 -56 -17 -69 -2 -14 -22 -95 -44 -180 -22 -86 -41 -165 -43
-176 -2 -11 -7 -27 -10 -35 -3 -8 -8 -27 -10 -42 l-5 -28 95 0 c88 0 95 1 104
23 7 17 71 261 84 322 1 6 28 117 60 248 l58 237 44 0 c24 0 44 -2 44 -5 0 -3
-14 -60 -31 -128 -17 -67 -32 -129 -34 -137 -2 -8 -24 -97 -49 -197 -25 -101
-48 -195 -51 -210 -2 -16 -11 -50 -20 -78 -23 -78 -26 -75 83 -75 l98 0 28
113 c58 232 107 433 111 452 3 11 27 109 55 219 27 109 50 205 50 212 0 20
-752 21 -767 2z"/>
<path d="M2801 1319 c-11 -5 -22 -31 -34 -80 -10 -41 -20 -84 -23 -96 -6 -23
-5 -23 89 -23 106 0 109 2 121 70 3 19 12 56 20 83 8 26 13 47 11 48 -20 5
-170 3 -184 -2z"/>
</g>
</svg>
